<?xml version="1.0" encoding="UTF-8"?>
<svg xmlns="http://www.w3.org/2000/svg" xmlns:xlink="http://www.w3.org/1999/xlink" width="2975pt" height="1700pt" viewBox="0 0 2975 1700" version="1.1">
<g id="surface1">
<rect x="0" y="0" width="2975" height="1700" style="fill:rgb(100%,100%,100%);fill-opacity:1;stroke:none;"/>
<path style=" stroke:none;fill-rule:nonzero;fill:rgb(98.4375%,92.576599%,85.9375%);fill-opacity:1;" d="M 327.566406 1532.460938 C 327.566406 1532.460938 44.878906 930.46875 602.027344 930.46875 C 896.402344 930.46875 775.136719 765.300781 975.273438 574.148438 C 1175.410156 383 1875.339844 230.28125 2024.308594 599.398438 C 2173.28125 968.515625 1805.121094 1248.769531 2160.871094 1200.691406 C 2588.378906 1142.921875 2757.261719 1532.460938 2757.261719 1532.460938 L 327.566406 1532.460938 "/>
<path style=" stroke:none;fill-rule:nonzero;fill:rgb(65.818787%,82.421875%,62.304688%);fill-opacity:1;" d="M 2617.078125 1456.078125 C 2590.699219 1436.800781 2536.789063 1449.820313 2497.011719 1463.738281 C 2491.058594 1455.390625 2483.859375 1446.78125 2475.140625 1438.371094 C 2560.839844 1383.160156 2679.21875 1265.421875 2616.480469 1255.449219 C 2561.941406 1246.789063 2488.328125 1352.769531 2449 1417.28125 C 2408.148438 1389.800781 2345.558594 1369.601563 2250 1376.609375 C 2001.988281 1394.789063 1808.238281 1234.808594 1665.421875 1288.171875 C 1551.871094 1330.589844 1447.800781 1354.359375 1347.441406 1346.238281 C 1351.761719 1272.921875 1352.699219 1128.96875 1295.128906 1114.039063 C 1236.679688 1098.878906 1294.011719 1262.359375 1325.871094 1343.988281 C 1318.398438 1343.03125 1310.941406 1341.890625 1303.5 1340.558594 C 1282.859375 1299.878906 1248.859375 1246.640625 1211.53125 1244.820313 C 1176.371094 1243.101563 1219.761719 1290.96875 1262.460938 1331.519531 C 1139.730469 1305.75 994.140625 1405.519531 991.726563 1523.480469 L 2523.980469 1523.480469 C 2523.980469 1523.480469 2521.269531 1506.261719 2509.25 1483.558594 C 2568.46875 1482.398438 2645.730469 1477.019531 2617.078125 1456.078125 "/>
<path style=" stroke:none;fill-rule:nonzero;fill:rgb(29.026794%,45.872498%,79.6875%);fill-opacity:1;" d="M 922.117188 1432.308594 L 922.117188 1523.5 L 1325.960938 1523.5 L 1325.960938 1432.308594 L 922.117188 1432.308594 "/>
<path style=" stroke:none;fill-rule:nonzero;fill:rgb(41.184998%,61.521912%,93.359375%);fill-opacity:1;" d="M 797.597656 1432.308594 L 797.597656 1523.5 L 1201.441406 1523.5 L 1201.441406 1432.308594 L 797.597656 1432.308594 "/>
<path style=" stroke:none;fill-rule:nonzero;fill:rgb(84.764099%,40.380859%,7.446289%);fill-opacity:1;" d="M 1484.828125 1523.480469 L 1785.539063 1523.480469 L 1785.539063 1103.171875 L 1484.828125 1103.171875 L 1484.828125 1523.480469 "/>
<path style=" stroke:none;fill-rule:nonzero;fill:rgb(94.53125%,63.867188%,30.979919%);fill-opacity:1;" d="M 1392.121094 1523.480469 L 1692.820313 1523.480469 L 1692.820313 1103.171875 L 1392.121094 1103.171875 L 1392.121094 1523.480469 "/>
<path style=" stroke:none;fill-rule:nonzero;fill:rgb(78.90625%,36.083984%,7.054138%);fill-opacity:1;" d="M 1692.820313 1103.171875 L 1785.539063 1166.28125 L 1785.539063 1103.171875 Z M 1692.820313 1103.171875 "/>
<path style=" stroke:none;fill-rule:nonzero;fill:rgb(50.976563%,70.117188%,47.068787%);fill-opacity:1;" d="M 764.5625 1196.269531 C 764.5625 1196.269531 708.324219 1238.089844 697.359375 1235.550781 C 686.394531 1233.019531 738.460938 1190.410156 738.460938 1190.410156 C 718.867188 1180.988281 657.964844 1186.898438 657.964844 1186.898438 C 657.964844 1186.898438 637.679688 1252.320313 627.675781 1247.160156 C 617.671875 1242 648.59375 1190.148438 648.59375 1190.148438 C 626.773438 1188.828125 600.007813 1205.039063 600.007813 1205.039063 C 563.371094 1233.96875 602.417969 1279.53125 602.417969 1279.53125 C 602.417969 1279.53125 594.898438 1302.039063 571.761719 1322.550781 C 571.761719 1322.550781 538.714844 1346.988281 536.421875 1390.660156 L 542.417969 1391.191406 C 542.417969 1391.191406 551.925781 1350.519531 569.203125 1331.289063 C 569.875 1330.589844 570.851563 1329.589844 572.058594 1328.378906 C 574.871094 1325.769531 576.84375 1323.808594 578.167969 1322.359375 C 586.769531 1314.089844 598.652344 1303.570313 604.378906 1302.550781 C 604.378906 1302.550781 604.089844 1301.5 604.132813 1299.671875 C 604.210938 1300.589844 604.292969 1301.539063 604.378906 1302.550781 C 606.339844 1325.570313 651.003906 1345.679688 678.480469 1349.808594 C 705.960938 1353.949219 697.46875 1342.648438 688 1325.910156 C 678.53125 1309.160156 648.566406 1301.660156 641.730469 1293.949219 C 634.894531 1286.238281 649.027344 1286.21875 665.585938 1293.78125 C 682.140625 1301.339844 684.410156 1321.511719 710.96875 1334.230469 C 737.527344 1346.941406 777.488281 1302.871094 777.488281 1302.871094 C 756.324219 1301.800781 726.097656 1278.808594 727.191406 1271.78125 C 728.285156 1264.738281 778.5 1283.910156 787.085938 1284.828125 C 795.667969 1285.75 815.199219 1275.070313 818.222656 1240.5 C 821.242188 1205.921875 764.5625 1196.269531 764.5625 1196.269531 "/>
<path style=" stroke:none;fill-rule:nonzero;fill:rgb(65.818787%,82.421875%,62.304688%);fill-opacity:1;" d="M 465.894531 1222.238281 C 465.894531 1222.238281 528.011719 1187.449219 499.023438 1140.25 C 499.023438 1140.25 475.835938 1111.261719 450.988281 1103.808594 C 450.988281 1103.808594 464.238281 1174.199219 450.988281 1175.859375 C 437.738281 1177.519531 441.878906 1096.351563 441.878906 1096.351563 C 441.878906 1096.351563 376.453125 1064.878906 350.78125 1067.371094 C 350.78125 1067.371094 391.359375 1136.109375 378.109375 1134.449219 C 364.859375 1132.789063 319.3125 1063.230469 319.3125 1063.230469 C 319.3125 1063.230469 252.226563 1050.800781 241.460938 1090.558594 C 230.695313 1130.308594 248.085938 1150.191406 258.023438 1152.671875 C 267.964844 1155.160156 331.730469 1154.328125 330.074219 1162.609375 C 328.421875 1170.890625 285.355469 1184.140625 261.339844 1176.691406 C 261.339844 1176.691406 287.839844 1242.109375 322.621094 1238.800781 C 357.40625 1235.488281 368.171875 1213.960938 389.703125 1212.300781 C 411.238281 1210.640625 426.972656 1216.441406 416.207031 1222.238281 C 405.441406 1228.03125 369 1224.140625 351.609375 1238.921875 C 334.21875 1253.710938 320.140625 1262.820313 352.4375 1269.441406 C 384.734375 1276.070313 442.707031 1271.929688 454.300781 1247.078125 C 465.894531 1222.238281 465.894531 1222.238281 465.894531 1222.238281 "/>
<path style=" stroke:none;fill-rule:nonzero;fill:rgb(50.976563%,70.117188%,47.068787%);fill-opacity:1;" d="M 482.460938 1282.691406 C 465.066406 1250.390625 465.894531 1222.238281 465.894531 1222.238281 C 446.019531 1159.289063 272.105469 1102.980469 272.105469 1102.980469 C 493.226563 1192.421875 454.300781 1247.078125 454.300781 1247.078125 C 460.261719 1250.558594 469.195313 1267.128906 475.398438 1279.851563 C 476.277344 1282.011719 477.679688 1285.011719 479.757813 1289.078125 C 480.597656 1290.910156 481.269531 1292.421875 481.734375 1293.46875 C 493.121094 1321.949219 487.089844 1371.148438 487.089844 1371.148438 L 493.988281 1373 C 509.28125 1323.421875 482.460938 1282.691406 482.460938 1282.691406 "/>
<path style=" stroke:none;fill-rule:nonzero;fill:rgb(65.818787%,82.421875%,62.304688%);fill-opacity:1;" d="M 564.714844 1174.269531 C 564.714844 1174.269531 482.835938 1128.421875 521.046875 1066.191406 C 521.046875 1066.191406 551.613281 1027.980469 584.363281 1018.160156 C 584.363281 1018.160156 566.894531 1110.949219 584.363281 1113.128906 C 601.832031 1115.320313 596.371094 1008.328125 596.371094 1008.328125 C 596.371094 1008.328125 682.613281 966.847656 716.457031 970.121094 C 716.457031 970.121094 662.964844 1060.730469 680.433594 1058.550781 C 697.898438 1056.359375 757.941406 964.664063 757.941406 964.664063 C 757.941406 964.664063 846.367188 948.285156 860.5625 1000.691406 C 874.753906 1053.089844 851.824219 1079.289063 838.726563 1082.558594 C 825.628906 1085.839844 741.566406 1084.75 743.75 1095.671875 C 745.933594 1106.578125 802.699219 1124.050781 834.359375 1114.21875 C 834.359375 1114.21875 799.425781 1200.46875 753.574219 1196.101563 C 707.726563 1191.730469 693.53125 1163.351563 665.148438 1161.171875 C 636.765625 1158.980469 616.023438 1166.621094 630.214844 1174.269531 C 644.40625 1181.910156 692.441406 1176.769531 715.367188 1196.261719 C 738.289063 1215.75 756.851563 1227.761719 714.273438 1236.488281 C 671.699219 1245.230469 595.28125 1239.769531 579.996094 1207.019531 C 564.714844 1174.269531 564.714844 1174.269531 564.714844 1174.269531 "/>
<path style=" stroke:none;fill-rule:nonzero;fill:rgb(50.976563%,70.117188%,47.068787%);fill-opacity:1;" d="M 820.167969 1017.058594 C 820.167969 1017.058594 590.914063 1091.300781 564.714844 1174.269531 C 564.714844 1174.269531 565.804688 1211.378906 542.878906 1253.960938 C 542.878906 1253.960938 507.523438 1307.648438 527.679688 1373 L 536.777344 1370.558594 C 536.777344 1370.558594 528.824219 1305.710938 543.835938 1268.160156 C 544.445313 1266.78125 545.335938 1264.789063 546.441406 1262.371094 C 549.183594 1257.011719 551.027344 1253.058594 552.191406 1250.210938 C 560.363281 1233.449219 572.144531 1211.601563 579.996094 1207.019531 C 579.996094 1207.019531 528.6875 1134.96875 820.167969 1017.058594 "/>
<path style=" stroke:none;fill-rule:nonzero;fill:rgb(94.53125%,63.867188%,30.979919%);fill-opacity:1;" d="M 561.953125 1514.71875 C 650.53125 1514.71875 722.335938 1442.921875 722.335938 1354.339844 L 401.570313 1354.339844 C 401.570313 1442.921875 473.378906 1514.71875 561.953125 1514.71875 "/>
<path style=" stroke:none;fill-rule:nonzero;fill:rgb(100%,72.459412%,45.092773%);fill-opacity:1;" d="M 601.421875 1513.5 C 594.898438 1514.308594 588.246094 1514.71875 581.492188 1514.71875 C 492.917969 1514.71875 421.117188 1442.910156 421.117188 1354.339844 L 460.960938 1354.339844 C 460.960938 1436.171875 522.246094 1503.679688 601.421875 1513.5 "/>
<path style=" stroke:none;fill-rule:nonzero;fill:rgb(94.53125%,63.867188%,30.979919%);fill-opacity:1;" d="M 704.765625 1503.691406 L 419.144531 1503.691406 C 408.214844 1503.691406 399.355469 1512.550781 399.355469 1523.480469 L 724.550781 1523.480469 C 724.550781 1512.550781 715.691406 1503.691406 704.765625 1503.691406 "/>
<path style=" stroke:none;fill-rule:nonzero;fill:rgb(84.764099%,40.380859%,7.446289%);fill-opacity:1;" d="M 723.523438 1354.339844 L 398.757813 1354.339844 C 397.398438 1354.339844 396.296875 1355.441406 396.296875 1356.800781 C 396.296875 1358.160156 397.398438 1359.261719 398.757813 1359.261719 L 723.523438 1359.261719 C 724.882813 1359.261719 725.984375 1358.160156 725.984375 1356.800781 C 725.984375 1355.441406 724.882813 1354.339844 723.523438 1354.339844 "/>
<path style=" stroke:none;fill-rule:nonzero;fill:rgb(92.96875%,59.179688%,36.473083%);fill-opacity:1;" d="M 1961.128906 509.78125 C 1956.480469 509.070313 1942.46875 522.019531 1942.46875 522.019531 C 1912.558594 525.480469 1868.828125 533.421875 1853.089844 536.449219 C 1841.921875 538.601563 1811.910156 528.371094 1782.589844 516.621094 C 1747.71875 502.640625 1713.839844 486.519531 1713.839844 486.519531 C 1694.488281 485.53125 1672.519531 520.828125 1711.761719 543.269531 C 1717.75 546.699219 1740.25 552.550781 1766.171875 557.890625 C 1766.171875 557.890625 1766.171875 557.890625 1766.171875 557.878906 C 1801.921875 565.25 1844.160156 571.640625 1858.53125 569.398438 C 1875.230469 566.78125 1922.5 549.488281 1950.621094 536.25 C 1950.621094 536.25 1950.648438 536.238281 1950.691406 536.21875 C 1950.800781 536.171875 1950.898438 536.121094 1951 536.070313 C 1952.691406 535.28125 1959.570313 532.210938 1964.171875 532.488281 C 1969.441406 532.800781 1981.171875 523.160156 1981.53125 520.589844 C 1981.878906 518.011719 1965.78125 510.480469 1961.128906 509.78125 "/>
<path style=" stroke:none;fill-rule:nonzero;fill:rgb(16.868591%,27.830505%,54.492188%);fill-opacity:1;" d="M 1924.609375 954.464844 L 1908.140625 957.8125 C 1908.140625 957.8125 1832.769531 873.128906 1821.140625 837.496094 C 1814.921875 818.453125 1775.128906 810.222656 1733.539063 799.472656 C 1697.351563 790.113281 1659.800781 778.839844 1641.871094 756.84375 C 1603.320313 709.578125 1666.070313 651.5 1666.070313 651.5 C 1666.070313 651.5 1732.800781 691.160156 1790.359375 732.128906 C 1830.589844 760.757813 1866.351563 790.027344 1871.738281 806.851563 C 1884.828125 847.757813 1912.578125 925.515625 1924.609375 954.464844 "/>
<path style=" stroke:none;fill-rule:nonzero;fill:rgb(13.719177%,21.972656%,38.426208%);fill-opacity:1;" d="M 1902.558594 982.398438 L 1911.828125 982.398438 C 1914.929688 981.914063 1917.21875 981.015625 1920.398438 980.597656 C 1925.238281 979.964844 1927.460938 981.945313 1927.898438 982.398438 C 1927.960938 982.460938 1927.988281 982.492188 1927.988281 982.492188 L 1967.339844 982.492188 C 1968.328125 981.082031 1967.378906 977.804688 1966.449219 975.394531 C 1965.828125 973.757813 1964.460938 972.515625 1962.769531 972.027344 C 1958.601563 970.820313 1950.371094 969.742188 1942.828125 962.921875 C 1938.601563 959.09375 1922.371094 948.839844 1922.371094 948.839844 L 1922.28125 948.816406 C 1921.921875 948.824219 1920.230469 949.347656 1912.839844 955.578125 C 1909.03125 958.796875 1902.519531 951.035156 1902.519531 951.035156 C 1902.519531 951.035156 1901.300781 952.046875 1900.390625 953.929688 C 1899.660156 955.414063 1899.121094 957.453125 1899.539063 959.972656 C 1900.128906 963.515625 1898.238281 970.105469 1896.71875 974.5625 C 1895.808594 977.265625 1895.039063 979.179688 1895.039063 979.179688 C 1895.039063 979.179688 1894.589844 981.402344 1902.558594 982.398438 "/>
<path style=" stroke:none;fill-rule:nonzero;fill:rgb(11.767578%,23.925781%,43.920898%);fill-opacity:1;" d="M 1790.359375 732.128906 L 1733.539063 799.472656 C 1697.351563 790.113281 1659.800781 778.839844 1641.871094 756.84375 C 1603.320313 709.578125 1666.070313 651.5 1666.070313 651.5 C 1666.070313 651.5 1732.800781 691.160156 1790.359375 732.128906 "/>
<path style=" stroke:none;fill-rule:nonzero;fill:rgb(16.868591%,27.830505%,54.492188%);fill-opacity:1;" d="M 1738.730469 696.949219 C 1738.730469 696.949219 1734.148438 711.394531 1726.691406 733.125 C 1717.261719 760.601563 1703.21875 799.726563 1687.988281 836.007813 C 1684.640625 843.980469 1681.230469 851.816406 1677.800781 859.363281 C 1665.128906 887.28125 1652.171875 911.21875 1640.75 923.378906 C 1620.230469 945.242188 1570.359375 1085.808594 1570.359375 1085.808594 L 1557.929688 1082.371094 C 1557.929688 1082.371094 1540.601563 962.34375 1601.980469 894.039063 C 1602.640625 893.3125 1603.148438 892.46875 1603.21875 891.488281 C 1603.230469 891.480469 1603.230469 891.472656 1603.230469 891.464844 C 1604.050781 881.351563 1606.96875 836.078125 1613.328125 790.199219 C 1614.890625 778.941406 1616.660156 767.660156 1618.640625 756.847656 C 1618.769531 756.152344 1618.898438 755.46875 1619.03125 754.785156 C 1628.359375 704.789063 1637.300781 682.550781 1648.839844 671.359375 L 1733.710938 695.519531 L 1738.730469 696.949219 "/>
<path style=" stroke:none;fill-rule:nonzero;fill:rgb(13.719177%,21.972656%,38.426208%);fill-opacity:1;" d="M 1556.539063 1103.078125 L 1565.808594 1103.078125 C 1568.910156 1102.589844 1571.199219 1101.691406 1574.378906 1101.269531 C 1579.21875 1100.640625 1581.441406 1102.621094 1581.878906 1103.078125 C 1581.941406 1103.140625 1581.96875 1103.171875 1581.96875 1103.171875 L 1621.320313 1103.171875 C 1622.308594 1101.75 1621.359375 1098.480469 1620.429688 1096.070313 C 1619.800781 1094.429688 1618.441406 1093.191406 1616.75 1092.699219 C 1612.570313 1091.488281 1604.351563 1090.421875 1596.808594 1083.601563 C 1592.570313 1079.769531 1576.339844 1069.511719 1576.339844 1069.511719 L 1576.261719 1069.488281 C 1575.898438 1069.5 1574.210938 1070.019531 1566.820313 1076.25 C 1563.011719 1079.46875 1556.5 1071.710938 1556.5 1071.710938 C 1556.5 1071.710938 1555.28125 1072.71875 1554.371094 1074.601563 C 1553.640625 1076.089844 1553.101563 1078.128906 1553.519531 1080.648438 C 1554.109375 1084.191406 1552.21875 1090.78125 1550.710938 1095.238281 C 1549.789063 1097.941406 1549.011719 1099.851563 1549.011719 1099.851563 C 1549.011719 1099.851563 1548.570313 1102.078125 1556.539063 1103.078125 "/>
<path style=" stroke:none;fill-rule:nonzero;fill:rgb(100%,69.726563%,49.021912%);fill-opacity:1;" d="M 1574.738281 533.710938 C 1574.738281 533.710938 1560.539063 568.441406 1544.171875 602.25 C 1530.398438 630.679688 1515.101563 658.449219 1505.398438 664.378906 C 1491.71875 672.730469 1454.039063 696.300781 1429.589844 713.886719 C 1429.589844 713.886719 1410.519531 713.742188 1407.550781 717.394531 C 1404.589844 721.046875 1397.75 737.453125 1399.75 739.113281 C 1401.75 740.777344 1416.910156 740.007813 1420.589844 736.230469 C 1423.808594 732.9375 1430.960938 730.566406 1432.738281 730.015625 C 1432.851563 729.980469 1432.960938 729.949219 1433.070313 729.914063 C 1433.121094 729.902344 1433.148438 729.894531 1433.148438 729.894531 L 1433.148438 729.890625 C 1462.851563 720.753906 1509.449219 701.714844 1523.550781 692.398438 C 1535.699219 684.390625 1562.621094 651.21875 1584.089844 621.710938 C 1584.101563 621.710938 1584.101563 621.710938 1584.101563 621.710938 C 1599.671875 600.308594 1612.371094 580.839844 1614.488281 574.269531 C 1628.398438 531.261719 1588.378906 519.949219 1574.738281 533.710938 "/>
<path style=" stroke:none;fill-rule:nonzero;fill:rgb(17.259216%,22.75238%,39.208984%);fill-opacity:1;" d="M 1649 397.488281 C 1647.320313 395.039063 1645.609375 392.871094 1643.921875 390.921875 C 1646.019531 390.96875 1648.289063 390.761719 1650.179688 389.980469 C 1655.171875 387.921875 1657.441406 372.101563 1656.691406 367.398438 C 1655.941406 362.710938 1649.019531 349.140625 1640.480469 347.789063 C 1631.941406 346.429688 1623.121094 355.910156 1623.121094 355.910156 C 1624.699219 349.070313 1639.140625 345.121094 1639.140625 345.121094 C 1609.390625 350.609375 1610.910156 370.449219 1611.109375 372.289063 C 1583.878906 362.578125 1567.890625 413.871094 1567.890625 413.871094 L 1638.441406 455.449219 C 1638.441406 455.449219 1638.621094 444.121094 1645.351563 444.851563 C 1655.851563 445.988281 1664.589844 420.210938 1649 397.488281 "/>
<path style=" stroke:none;fill-rule:nonzero;fill:rgb(100%,69.726563%,49.021912%);fill-opacity:1;" d="M 1653.5 505.109375 C 1637.308594 512.738281 1615.828125 501.75 1615.941406 501.640625 C 1617.328125 500.25 1616.839844 496.089844 1615.570313 490.660156 C 1614.300781 484.988281 1611.289063 477.238281 1605.738281 467.988281 C 1604.589844 466.03125 1603.429688 464.058594 1602.039063 461.980469 L 1603.890625 461.289063 L 1635.339844 448.691406 C 1635.339844 448.691406 1640.429688 457.820313 1645.75 466.140625 C 1650.261719 473.078125 1655 479.320313 1657.078125 479.089844 C 1657.199219 478.980469 1678.011719 493.320313 1653.5 505.109375 "/>
<path style=" stroke:none;fill-rule:nonzero;fill:rgb(92.96875%,59.179688%,36.473083%);fill-opacity:1;" d="M 1635.339844 451.808594 C 1634.53125 463.019531 1630.71875 483.261719 1615.570313 490.660156 C 1614.300781 484.988281 1611.289063 477.238281 1605.738281 467.988281 L 1635.339844 451.808594 "/>
<path style=" stroke:none;fill-rule:nonzero;fill:rgb(100%,69.726563%,49.021912%);fill-opacity:1;" d="M 1603.898438 480.761719 C 1603.898438 480.761719 1644.851563 464.621094 1634.398438 439.28125 C 1623.960938 413.941406 1622.210938 394.78125 1595.628906 404.019531 C 1569.050781 413.25 1567.980469 425 1569.410156 434.308594 C 1570.839844 443.609375 1592.980469 484.300781 1603.898438 480.761719 "/>
<path style=" stroke:none;fill-rule:nonzero;fill:rgb(17.259216%,22.75238%,39.208984%);fill-opacity:1;" d="M 1619.171875 433.5 C 1638.078125 430.828125 1643.601563 423.191406 1643.601563 423.191406 C 1643.601563 423.191406 1626.191406 418.191406 1615.960938 401.140625 C 1615.960938 401.140625 1594.710938 393.96875 1578.960938 405.949219 C 1578 407.199219 1577.308594 408.671875 1576.96875 410.390625 C 1573.359375 409.210938 1567.929688 409.519531 1564.800781 419.71875 C 1560.101563 435.039063 1576.828125 451.769531 1576.828125 451.769531 C 1580.890625 450.628906 1576.308594 436.96875 1575.671875 429.679688 C 1575.199219 424.320313 1578.101563 417.449219 1579.660156 414.199219 C 1581.660156 416.800781 1601.609375 441.859375 1625.960938 442.859375 C 1625.960938 442.859375 1613.089844 438.398438 1601.378906 429.671875 C 1607.210938 432.53125 1613.398438 434.308594 1619.171875 433.5 "/>
<path style=" stroke:none;fill-rule:nonzero;fill:rgb(41.184998%,61.521912%,93.359375%);fill-opacity:1;" d="M 1731.449219 557.320313 C 1731.101563 556.101563 1730.730469 554.828125 1730.339844 553.53125 C 1736.421875 541.910156 1739.410156 531.441406 1740.671875 522.570313 C 1743.449219 503.839844 1738.710938 492.269531 1738.710938 492.269531 C 1738.710938 492.269531 1710.308594 477.210938 1697.769531 475.300781 C 1697.710938 475.28125 1697.660156 475.261719 1697.609375 475.25 C 1697.460938 475.230469 1697.289063 475.210938 1697.109375 475.199219 C 1684.449219 473.460938 1657.039063 479.050781 1657.039063 479.050781 C 1657.039063 479.050781 1662.328125 493.128906 1647.421875 502.511719 C 1632.5 511.890625 1616.570313 500.101563 1616.570313 500.101563 C 1616.089844 500.429688 1615.578125 500.78125 1615.058594 501.160156 L 1615.050781 501.148438 C 1615.050781 501.148438 1575.808594 527.050781 1572.289063 532.960938 C 1568.761719 538.878906 1553.671875 568.179688 1553.671875 568.179688 C 1553.671875 568.179688 1558.460938 592.769531 1611.46875 594.828125 C 1615.828125 605.398438 1619.171875 615.710938 1620.25 624.308594 C 1624.460938 657.699219 1619.570313 684.03125 1624.480469 703.519531 C 1629.390625 723.011719 1717.839844 711.894531 1733.859375 708.148438 C 1749.878906 704.398438 1746.269531 687.289063 1747.511719 670.679688 C 1749.058594 649.800781 1736.671875 575.738281 1731.449219 557.320313 "/>
<path style=" stroke:none;fill-rule:nonzero;fill:rgb(29.026794%,50.976563%,82.8125%);fill-opacity:1;" d="M 1740.671875 522.570313 C 1739.398438 531.46875 1736.398438 541.988281 1730.269531 553.671875 C 1728.878906 547.539063 1723.21875 525.109375 1714.078125 514.941406 C 1714.078125 514.941406 1729.460938 516.320313 1740.671875 522.570313 "/>
<path style=" stroke:none;fill-rule:nonzero;fill:rgb(92.96875%,59.179688%,36.473083%);fill-opacity:1;" d="M 1380.519531 741.378906 C 1380.519531 741.378906 1397 721.410156 1400.550781 719.050781 C 1404.101563 716.6875 1419.660156 712.550781 1420.550781 713.382813 C 1421.441406 714.21875 1421.480469 715.421875 1419.550781 717.125 C 1417.628906 718.828125 1410.261719 723.125 1411.308594 723.609375 C 1412.371094 724.09375 1434.570313 713.035156 1437.78125 716.757813 C 1440.980469 720.472656 1435.960938 735.824219 1427.398438 743.183594 C 1418.851563 750.539063 1393.300781 753.679688 1391.699219 754.707031 C 1378.070313 763.417969 1380.519531 741.378906 1380.519531 741.378906 "/>
<path style=" stroke:none;fill-rule:nonzero;fill:rgb(100%,69.726563%,49.021912%);fill-opacity:1;" d="M 1090.390625 695.269531 C 1090.390625 695.269531 1114.070313 723.355469 1144.210938 711.605469 C 1144.210938 711.605469 1150.699219 695.921875 1150.789063 684.351563 C 1150.800781 682.929688 1150.820313 681.550781 1150.839844 680.238281 C 1151 667.21875 1151.441406 659.910156 1151.441406 659.910156 C 1151.441406 659.910156 1151.429688 659.910156 1151.410156 659.910156 C 1150.039063 659.339844 1105.320313 640.980469 1105.359375 642.5 C 1106.128906 677.71875 1090.390625 695.269531 1090.390625 695.269531 "/>
<path style=" stroke:none;fill-rule:nonzero;fill:rgb(92.96875%,59.179688%,36.473083%);fill-opacity:1;" d="M 1109.851563 650.898438 C 1114.160156 658.890625 1128.960938 674.53125 1150.839844 680.238281 C 1151 667.21875 1151.441406 659.910156 1151.441406 659.910156 C 1151.441406 659.910156 1151.429688 659.910156 1151.410156 659.910156 C 1150.171875 659.578125 1108.570313 648.539063 1109.851563 650.898438 "/>
<path style=" stroke:none;fill-rule:nonzero;fill:rgb(100%,69.726563%,49.021912%);fill-opacity:1;" d="M 1160.808594 658.558594 C 1160.808594 658.558594 1110.519531 670.378906 1103.640625 638.949219 C 1096.761719 607.519531 1085.628906 587.878906 1117.449219 579.011719 C 1149.269531 570.128906 1158.148438 580.75 1163 590.679688 C 1167.851563 600.621094 1173.710938 654.679688 1160.808594 658.558594 "/>
<path style=" stroke:none;fill-rule:nonzero;fill:rgb(66.209412%,27.050781%,23.925781%);fill-opacity:1;" d="M 1105.359375 647.519531 C 1104.671875 647.960938 1093.851563 651.28125 1073.359375 610.460938 C 1070.140625 604.050781 1067.949219 590.191406 1075.449219 577.941406 C 1082.949219 565.691406 1109.539063 556.058594 1131.628906 551.871094 C 1153.71875 547.679688 1159.019531 560.109375 1164.21875 572.601563 C 1169.679688 585.710938 1185.449219 596.511719 1185.449219 596.511719 C 1166.410156 607.148438 1143.460938 591.929688 1135.511719 594.429688 C 1127.558594 596.941406 1124.761719 609.460938 1124.160156 613.480469 C 1123.558594 617.488281 1122.648438 620.828125 1112.648438 617.238281 C 1102.660156 613.660156 1108.128906 631.410156 1109.730469 634.800781 C 1109.730469 634.800781 1111.089844 643.839844 1105.359375 647.519531 "/>
<path style=" stroke:none;fill-rule:nonzero;fill:rgb(17.259216%,22.75238%,39.208984%);fill-opacity:1;" d="M 975.816406 1432.308594 L 945.367188 1432.308594 C 938.984375 1432.308594 931.894531 1425.828125 930.117188 1413.980469 C 928.339844 1402.109375 915.222656 1395.640625 912.378906 1385.929688 C 909.539063 1376.230469 924.089844 1362.558594 924.089844 1362.558594 L 926.519531 1359.390625 L 929.050781 1356.089844 L 953.171875 1361.839844 C 953.171875 1361.839844 953.765625 1367.660156 954.140625 1375.078125 C 954.398438 1380.429688 954.539063 1386.621094 954.238281 1392.039063 C 953.527344 1404.988281 957.8125 1418.921875 969.160156 1421.441406 C 980.515625 1423.960938 975.816406 1432.308594 975.816406 1432.308594 "/>
<path style=" stroke:none;fill-rule:nonzero;fill:rgb(17.259216%,22.75238%,39.208984%);fill-opacity:1;" d="M 1187.789063 1432.601563 L 1107.078125 1432.601563 C 1106.308594 1432.449219 1105.71875 1432.28125 1105.371094 1432.089844 C 1099.980469 1429.308594 1101.671875 1408.070313 1102.308594 1401.511719 C 1102.441406 1400.289063 1102.53125 1399.578125 1102.53125 1399.578125 C 1102.53125 1399.578125 1130.910156 1376.210938 1134.808594 1394.109375 C 1134.941406 1394.660156 1135.078125 1395.210938 1135.230469 1395.75 L 1135.230469 1395.761719 C 1140.160156 1412.5 1162.179688 1420.109375 1174.910156 1422.230469 C 1184.628906 1423.859375 1187.148438 1429.691406 1187.789063 1432.601563 "/>
<path style=" stroke:none;fill-rule:nonzero;fill:rgb(93.359375%,59.568787%,28.637695%);fill-opacity:1;" d="M 1171.53125 965.851563 C 1171.53125 965.851563 1167.21875 1019.628906 1162.148438 1084.269531 C 1155.261719 1172.089844 1146.980469 1279.960938 1146.171875 1300.390625 C 1144.75 1335.871094 1139.070313 1392.628906 1139.070313 1392.628906 C 1139.070313 1392.628906 1125.589844 1406.121094 1098.621094 1400.429688 C 1098.621094 1400.429688 1074.589844 1319.410156 1067.730469 1233.679688 C 1067.621094 1232.269531 1067.511719 1230.859375 1067.410156 1229.441406 C 1061.019531 1142.171875 1051.089844 958.402344 1051.089844 958.402344 L 1171.53125 965.851563 "/>
<path style=" stroke:none;fill-rule:nonzero;fill:rgb(89.84375%,52.539063%,21.972656%);fill-opacity:1;" d="M 1171.53125 965.851563 C 1171.53125 965.851563 1167.21875 1019.628906 1162.148438 1084.269531 L 1067.730469 1233.679688 C 1067.621094 1232.269531 1067.511719 1230.859375 1067.410156 1229.441406 C 1061.019531 1142.171875 1051.089844 958.402344 1051.089844 958.402344 L 1171.53125 965.851563 "/>
<path style=" stroke:none;fill-rule:nonzero;fill:rgb(93.359375%,59.568787%,28.637695%);fill-opacity:1;" d="M 1151.839844 972.238281 C 1151.839844 972.238281 1074.148438 1167 1023.058594 1258.53125 C 971.980469 1350.058594 956.015625 1375.601563 956.015625 1375.601563 C 956.015625 1375.601563 926.746094 1363.898438 924.085938 1355.910156 C 924.085938 1355.910156 943.621094 1179.210938 977.832031 1136.140625 C 997.164063 1111.800781 1019.871094 1038.761719 1020.941406 1013.210938 C 1022 987.671875 1027.851563 937.117188 1027.851563 937.117188 L 1151.839844 972.238281 "/>
<path style=" stroke:none;fill-rule:nonzero;fill:rgb(92.96875%,59.179688%,36.473083%);fill-opacity:1;" d="M 973.957031 939.804688 C 973.957031 939.804688 971.945313 964.125 970.472656 967.859375 C 968.996094 971.597656 959.175781 983.175781 958.039063 983.007813 C 956.898438 982.84375 956.222656 981.929688 956.796875 979.574219 C 957.371094 977.21875 960.757813 969.933594 959.6875 970.121094 C 958.613281 970.3125 947.371094 990.816406 942.894531 989.664063 C 938.414063 988.507813 934.035156 973.929688 936.699219 963.628906 C 939.367188 953.328125 957.449219 937.15625 958.140625 935.496094 C 963.996094 921.425781 973.957031 939.804688 973.957031 939.804688 "/>
<path style=" stroke:none;fill-rule:nonzero;fill:rgb(11.767578%,23.925781%,43.920898%);fill-opacity:1;" d="M 965.621094 945.972656 C 974.222656 948.730469 975.597656 948.109375 975.597656 948.109375 C 975.597656 948.109375 1017.449219 871.90625 1021.691406 864.929688 C 1025.929688 857.953125 1110.558594 779.476563 1110.558594 779.476563 L 1088.808594 698.378906 C 1088.808594 698.378906 992.558594 823.019531 982.164063 840.90625 C 964.988281 870.460938 954.925781 939.105469 954.925781 939.105469 C 954.925781 939.105469 958.867188 943.804688 965.621094 945.972656 "/>
<path style=" stroke:none;fill-rule:nonzero;fill:rgb(16.479492%,30.589294%,58.789063%);fill-opacity:1;" d="M 1187.929688 811.316406 C 1187.628906 827.972656 1186.660156 846.691406 1185.351563 865.710938 C 1185.269531 866.835938 1185.191406 867.964844 1185.109375 869.09375 C 1184.28125 880.871094 1183.371094 892.679688 1182.328125 904.191406 C 1181.921875 908.8125 1181.46875 913.371094 1181.011719 917.855469 L 1180.941406 918.460938 C 1180.910156 920.136719 1180.699219 921.957031 1180.519531 923.617188 C 1176.269531 966.742188 1171.820313 1000.820313 1171 1001.339844 C 1170.011719 1002 1168.898438 1002.328125 1167.691406 1002.179688 C 1156.378906 1000.761719 1122.628906 1003.328125 1095.011719 997.316406 C 1071.699219 992.398438 1051.621094 983.078125 1030.351563 970.507813 C 1027.53125 968.839844 1021.089844 964.417969 1021.621094 961.117188 C 1022.128906 957.484375 1023.078125 952.238281 1024.289063 945.644531 C 1028.480469 922.703125 1035.710938 883.242188 1038.179688 837.0625 C 1038.660156 828.460938 1039.359375 819.964844 1040.269531 811.609375 C 1042.640625 789.851563 1046.441406 769.183594 1051.539063 750.824219 C 1061.011719 716.71875 1074.929688 690.601563 1092.390625 680.378906 C 1094.671875 679.109375 1106.949219 686.921875 1118.21875 694.148438 C 1128.640625 700.828125 1139.601563 702.675781 1150.261719 701.742188 L 1159.640625 712.121094 C 1171.011719 725.328125 1183.109375 742.917969 1186.410156 767.914063 C 1186.660156 769.761719 1186.871094 771.722656 1187.050781 773.808594 C 1187.960938 783.992188 1188.191406 796.882813 1187.929688 811.316406 "/>
<path style=" stroke:none;fill-rule:nonzero;fill:rgb(11.767578%,23.925781%,43.920898%);fill-opacity:1;" d="M 1187.929688 811.316406 C 1187.628906 827.972656 1186.660156 846.691406 1185.351563 865.710938 C 1185.269531 866.835938 1185.191406 867.964844 1185.109375 869.09375 C 1120.511719 828.65625 1110.558594 754.660156 1110.558594 754.660156 C 1142.339844 756.054688 1167.589844 763.359375 1187.050781 773.808594 C 1187.960938 783.992188 1188.191406 796.882813 1187.929688 811.316406 "/>
<path style=" stroke:none;fill-rule:nonzero;fill:rgb(16.479492%,30.589294%,58.789063%);fill-opacity:1;" d="M 1390.328125 743.378906 C 1387 734.367188 1381.820313 734.953125 1381.820313 734.953125 C 1381.820313 734.953125 1285.761719 758.890625 1277.140625 759.917969 C 1268.53125 760.945313 1173.710938 722.894531 1173.710938 722.894531 C 1173.710938 722.894531 1136.390625 706.148438 1118.910156 721.441406 C 1103.71875 734.730469 1103.03125 751.5625 1106.578125 765.703125 C 1110.820313 782.550781 1125.070313 794.996094 1142.308594 797.191406 C 1180.988281 802.117188 1258.171875 811.390625 1274.339844 809.140625 C 1310.339844 804.128906 1391.921875 757.039063 1391.921875 757.039063 C 1391.921875 757.039063 1392.941406 750.453125 1390.328125 743.378906 "/>
<path style=" stroke:none;fill-rule:nonzero;fill:rgb(17.259216%,22.75238%,39.208984%);fill-opacity:1;" d="M 2337.460938 919.433594 C 2337.460938 919.433594 2350.800781 931.800781 2348.199219 940.589844 C 2345.589844 949.375 2333.550781 955.234375 2331.921875 965.976563 C 2330.300781 976.71875 2323.789063 982.574219 2317.929688 982.574219 C 2312.070313 982.574219 2290 982.574219 2290 982.574219 C 2290 982.574219 2285.679688 975.015625 2296.101563 972.738281 C 2306.519531 970.460938 2310.441406 957.839844 2309.789063 946.121094 C 2309.140625 934.402344 2310.769531 918.78125 2310.769531 918.78125 L 2332.898438 913.574219 L 2337.460938 919.433594 "/>
<path style=" stroke:none;fill-rule:nonzero;fill:rgb(17.259216%,22.75238%,39.208984%);fill-opacity:1;" d="M 2171.140625 981.113281 C 2169.789063 981.792969 2165.03125 982.261719 2158.5 982.574219 L 2095.328125 982.574219 C 2095.550781 980.695313 2097.019531 973.996094 2107.351563 972.332031 C 2119.019531 970.4375 2139.230469 963.652344 2143.730469 948.726563 C 2143.890625 948.253906 2144.011719 947.757813 2144.128906 947.265625 C 2147.699219 931.320313 2173.738281 952.144531 2173.738281 952.144531 C 2173.738281 952.144531 2173.820313 952.78125 2173.929688 953.871094 C 2174.539063 959.734375 2176.078125 978.648438 2171.140625 981.113281 "/>
<path style=" stroke:none;fill-rule:nonzero;fill:rgb(20.776367%,28.24707%,54.492188%);fill-opacity:1;" d="M 2110.441406 554.539063 C 2110.441406 554.539063 2114.390625 603.878906 2119.039063 663.191406 C 2125.359375 743.753906 2132.960938 842.71875 2133.710938 861.464844 C 2135.011719 894.019531 2140.21875 946.09375 2140.21875 946.09375 C 2140.21875 946.09375 2152.578125 958.464844 2177.328125 953.25 C 2177.328125 953.25 2199.371094 878.914063 2205.671875 800.261719 C 2205.769531 798.972656 2205.871094 797.675781 2205.960938 796.375 C 2211.820313 716.304688 2220.929688 547.710938 2220.929688 547.710938 L 2110.441406 554.539063 "/>
<path style=" stroke:none;fill-rule:nonzero;fill:rgb(17.259216%,22.75238%,39.208984%);fill-opacity:1;" d="M 2110.441406 554.539063 C 2110.441406 554.539063 2114.390625 603.878906 2119.039063 663.191406 L 2205.671875 800.261719 C 2205.769531 798.972656 2205.871094 797.675781 2205.960938 796.375 C 2211.820313 716.304688 2220.929688 547.710938 2220.929688 547.710938 L 2110.441406 554.539063 "/>
<path style=" stroke:none;fill-rule:nonzero;fill:rgb(20.776367%,28.24707%,54.492188%);fill-opacity:1;" d="M 2128.5 560.398438 C 2128.5 560.398438 2199.78125 739.089844 2246.648438 823.0625 C 2293.519531 907.035156 2308.160156 930.46875 2308.160156 930.46875 C 2308.160156 930.46875 2335.019531 919.730469 2337.460938 912.40625 C 2337.460938 912.40625 2319.539063 750.289063 2288.148438 710.769531 C 2270.410156 688.441406 2249.578125 621.429688 2248.601563 597.988281 C 2247.628906 574.558594 2242.25 528.179688 2242.25 528.179688 L 2128.5 560.398438 "/>
<path style=" stroke:none;fill-rule:nonzero;fill:rgb(100%,69.726563%,49.021912%);fill-opacity:1;" d="M 1908.640625 463.480469 C 1908.640625 463.480469 1889.308594 459.058594 1886.050781 459.289063 C 1882.800781 459.511719 1871.421875 464.269531 1871.269531 465.191406 C 1871.109375 466.109375 1871.648438 466.871094 1873.621094 467 C 1875.589844 467.128906 1882.058594 466.300781 1881.648438 467.089844 C 1881.238281 467.871094 1862.589844 471.53125 1862.390625 475.289063 C 1862.179688 479.039063 1872.398438 486.019531 1881.03125 486.480469 C 1889.660156 486.949219 1906.628906 476.921875 1908.089844 476.789063 C 1920.429688 475.71875 1908.640625 463.480469 1908.640625 463.480469 "/>
<path style=" stroke:none;fill-rule:nonzero;fill:rgb(89.84375%,52.539063%,21.972656%);fill-opacity:1;" d="M 1900.371094 468.390625 C 1897.589844 459.558594 1898.238281 458.160156 1898.238281 458.160156 C 1898.238281 458.160156 1976.621094 415.78125 1983.789063 411.480469 C 1990.96875 407.179688 2071.960938 320.988281 2071.960938 320.988281 L 2154.921875 343.820313 C 2154.921875 343.820313 2026.539063 441.621094 2008.140625 452.148438 C 1977.738281 469.550781 1907.328125 479.398438 1907.328125 479.398438 C 1907.328125 479.398438 1902.539063 475.328125 1900.371094 468.390625 "/>
<path style=" stroke:none;fill-rule:nonzero;fill:rgb(100%,69.726563%,49.021912%);fill-opacity:1;" d="M 2097.101563 279.089844 C 2097.101563 279.089844 2068.019531 330.261719 2039.589844 336.941406 C 2039.589844 336.941406 2040.769531 319.761719 2047.691406 307.988281 C 2044.859375 304.648438 2042.371094 301.578125 2040.210938 298.828125 C 2033.058594 289.660156 2029.660156 284.050781 2029.660156 284.050781 L 2039.300781 258.109375 L 2045.851563 240.511719 C 2049 246.21875 2052.460938 251.089844 2056.078125 255.25 C 2074.710938 276.671875 2097.101563 279.089844 2097.101563 279.089844 "/>
<path style=" stroke:none;fill-rule:nonzero;fill:rgb(92.96875%,59.179688%,36.473083%);fill-opacity:1;" d="M 2056.078125 255.25 C 2056.078125 255.25 2059.550781 280.898438 2040.210938 298.828125 C 2033.058594 289.660156 2029.660156 284.050781 2029.660156 284.050781 L 2039.300781 258.109375 C 2049.648438 254.960938 2056.078125 255.25 2056.078125 255.25 "/>
<path style=" stroke:none;fill-rule:nonzero;fill:rgb(100%,69.726563%,49.021912%);fill-opacity:1;" d="M 2021.988281 287.828125 C 2021.988281 287.828125 2065.449219 270.890625 2054.480469 243.988281 C 2043.511719 217.089844 2041.738281 196.789063 2013.53125 206.46875 C 1985.320313 216.148438 1984.148438 228.601563 1985.628906 238.460938 C 1987.101563 248.328125 2010.410156 291.539063 2021.988281 287.828125 "/>
<path style=" stroke:none;fill-rule:nonzero;fill:rgb(93.359375%,59.568787%,28.637695%);fill-opacity:1;" d="M 2246.46875 541.679688 C 2228.941406 566.890625 2097.878906 600.558594 2099.429688 583.109375 C 2100.03125 576.441406 2100.828125 564.671875 2099.410156 548.710938 C 2099.078125 544.96875 2098.621094 541.011719 2098.019531 536.820313 C 2094.691406 513.898438 2086.78125 484.421875 2069.140625 450.308594 C 2067.820313 447.75 2066.441406 445.171875 2065.011719 442.558594 C 2057.75 429.359375 2051.558594 415.390625 2046.839844 401.738281 C 2037.761719 375.5 2034.101563 350.390625 2038.679688 333.980469 C 2038.699219 333.898438 2038.730469 333.820313 2038.75 333.738281 C 2066.148438 321.078125 2076.769531 271.949219 2076.769531 271.949219 C 2076.769531 271.949219 2170.230469 288.730469 2222.589844 413.308594 C 2222.589844 413.308594 2261.71875 519.75 2246.46875 541.679688 "/>
<path style=" stroke:none;fill-rule:nonzero;fill:rgb(89.84375%,52.539063%,21.972656%);fill-opacity:1;" d="M 2099.410156 548.710938 C 2099.078125 544.96875 2098.621094 541.011719 2098.019531 536.820313 C 2094.691406 513.898438 2086.78125 484.421875 2069.140625 450.308594 C 2072.171875 431.949219 2076.351563 416.679688 2080.941406 409.808594 C 2099.578125 381.871094 2110.441406 377.5 2110.441406 377.5 C 2110.441406 377.5 2138.390625 495.398438 2099.410156 548.710938 "/>
<path style=" stroke:none;fill-rule:nonzero;fill:rgb(100%,69.726563%,49.021912%);fill-opacity:1;" d="M 1952.078125 520.660156 C 1952.078125 520.660156 1926.21875 522.011719 1922.210938 523.460938 C 1918.210938 524.898438 1905.621094 534.949219 1905.761719 536.160156 C 1905.898438 537.371094 1906.839844 538.121094 1909.359375 537.589844 C 1911.871094 537.050781 1919.710938 533.691406 1919.46875 534.820313 C 1919.238281 535.949219 1897.128906 547.21875 1898.210938 552.011719 C 1899.300781 556.789063 1914.621094 561.898438 1925.628906 559.398438 C 1936.628906 556.898438 1954.359375 538.25 1956.140625 537.570313 C 1971.25 531.808594 1952.078125 520.660156 1952.078125 520.660156 "/>
<path style=" stroke:none;fill-rule:nonzero;fill:rgb(93.359375%,59.568787%,28.637695%);fill-opacity:1;" d="M 1947.199219 530.460938 C 1942.019531 522.089844 1945.761719 518.269531 1945.761719 518.269531 C 1945.761719 518.269531 2025.628906 455.738281 2031.890625 449.421875 C 2038.148438 443.101563 2067.148438 342.5 2067.148438 342.5 C 2067.148438 342.5 2077.128906 301.789063 2100.511719 297.300781 C 2120.820313 293.398438 2134.859375 303.449219 2144.050781 315.230469 C 2154.988281 329.269531 2156.070313 348.628906 2146.980469 363.941406 C 2126.589844 398.308594 2085.449219 466.519531 2073.441406 478.171875 C 2046.699219 504.109375 1957.238281 540.359375 1957.238281 540.359375 C 1957.238281 540.359375 1951.269531 537.03125 1947.199219 530.460938 "/>
<path style=" stroke:none;fill-rule:nonzero;fill:rgb(16.868591%,27.830505%,54.492188%);fill-opacity:1;" d="M 2060.71875 194.019531 C 2061.019531 193.421875 2061.910156 192.78125 2064.058594 192.121094 C 2064.058594 192.121094 2062.039063 191.441406 2059.691406 191.960938 C 2058.46875 188.980469 2055.5 183.910156 2049.941406 183.871094 C 2049.941406 183.871094 2053.128906 184.699219 2054.308594 187.898438 C 2046.691406 183.058594 2032.558594 181.660156 1997.289063 193.410156 C 1950.800781 208.890625 1974.03125 235.878906 1981.070313 238.039063 C 1988.121094 240.199219 2001.089844 226.320313 2012.75 224.421875 C 2024.421875 222.53125 2030.730469 238.78125 2035.171875 240.128906 C 2039.621094 241.46875 2037.089844 237.78125 2041.75 234.070313 C 2046.410156 230.371094 2049.078125 239.078125 2048.980469 245.199219 C 2048.878906 251.320313 2057.960938 257.121094 2057.960938 257.121094 C 2057.960938 257.121094 2057.960938 257.121094 2063.289063 247.351563 C 2068.609375 237.578125 2067.160156 202.121094 2062.070313 195.730469 C 2061.628906 195.171875 2061.179688 194.601563 2060.71875 194.019531 "/>
<path style=" stroke:none;fill-rule:nonzero;fill:rgb(18.041992%,20.776367%,32.151794%);fill-opacity:1;" d="M 2824.210938 1532.871094 L 199.578125 1532.871094 C 197.675781 1532.871094 196.121094 1531.320313 196.121094 1529.410156 L 196.121094 1526.941406 C 196.121094 1525.039063 197.675781 1523.480469 199.578125 1523.480469 L 2824.210938 1523.480469 C 2826.109375 1523.480469 2827.671875 1525.039063 2827.671875 1526.941406 L 2827.671875 1529.410156 C 2827.671875 1531.320313 2826.109375 1532.871094 2824.210938 1532.871094 "/>
<path style=" stroke:none;fill-rule:nonzero;fill:rgb(25.87738%,44.309998%,73.631287%);fill-opacity:1;" d="M 1325.960938 1431.28125 L 1325.960938 1483.890625 L 1201.441406 1431.28125 Z M 1325.960938 1431.28125 "/>
<path style=" stroke:none;fill-rule:nonzero;fill:rgb(29.026794%,45.872498%,79.6875%);fill-opacity:1;" d="M 1979.828125 982.570313 L 1979.828125 1523.480469 L 2391.648438 1523.480469 L 2391.648438 982.570313 L 1979.828125 982.570313 "/>
<path style=" stroke:none;fill-rule:nonzero;fill:rgb(41.184998%,61.521912%,93.359375%);fill-opacity:1;" d="M 1852.839844 982.574219 L 1852.839844 1523.480469 L 2264.671875 1523.480469 L 2264.671875 982.574219 L 1852.839844 982.574219 "/>
<path style=" stroke:none;fill-rule:nonzero;fill:rgb(25.87738%,44.309998%,73.631287%);fill-opacity:1;" d="M 2391.648438 982.574219 L 2391.648438 1063.460938 L 2264.671875 982.574219 Z M 2391.648438 982.574219 "/>
</g>
</svg>
